<svg width="104" height="49" viewBox="0 0 104 49" fill="none" xmlns="http://www.w3.org/2000/svg">
<g id="Logo black" clip-path="url(#clip0_251_203)">
<path id="Vector" d="M103.992 0.82785V0.894532C103.942 0.872305 103.953 0.850078 103.992 0.82785Z" fill="white"/>
<path id="Vector_2" d="M34.9803 11.6915C34.8695 10.3725 34.3518 9.12187 33.5 8.11566C32.2316 6.59031 30.5696 5.69288 28.6601 5.2261C27.8298 5.04232 26.9875 4.91974 26.1396 4.85935C25.7668 4.79033 25.3841 4.79789 25.0143 4.88158H24.8189C24.0715 4.85564 23.3233 4.90216 22.5847 5.0205C20.6283 5.29834 18.8205 5.91515 17.2742 7.21545C16.1989 8.11717 15.4254 9.33196 15.0592 10.694C14.9385 11.0888 14.8818 11.5007 14.8913 11.9138C14.9629 11.8415 14.9931 11.8221 15.0042 11.7971C15.0482 11.697 15.0895 11.597 15.1252 11.4914C15.2405 11.0675 15.4378 10.6708 15.7055 10.3242C15.9733 9.9775 16.3063 9.68773 16.6853 9.47153C17.0417 9.25243 17.448 9.12989 17.8649 9.11578C18.2819 9.10166 18.6954 9.19644 19.0654 9.39095C20.2403 9.99943 20.7164 11.0413 20.8044 12.3083C20.8044 12.3805 20.8044 12.45 20.8044 12.5195C20.7899 12.8358 20.7419 13.1497 20.6613 13.4558C20.377 14.4375 19.855 15.3322 19.1425 16.0592C18.0804 17.1928 16.7844 18.0263 15.5269 18.9376C13.8628 20.1452 12.3068 21.4979 10.8768 22.9802C9.83568 24.0648 8.87983 25.2297 8.01799 26.4644C6.81184 28.2071 5.76821 30.059 4.90049 31.9962C3.63854 34.8556 2.5954 37.8084 1.78025 40.8288C1.19417 42.9209 0.679631 45.0325 0.159589 47.1414C0.137577 47.2303 0.159589 47.3525 0.0165092 47.3497L0 48.011C0.167844 47.9943 0.225626 47.861 0.30267 47.7332C0.740769 47.0267 1.27627 46.3868 1.89306 45.8327C3.03568 44.8354 4.32747 44.0271 5.72045 43.4377C7.30024 42.7938 8.9483 42.3361 10.632 42.0735C11.8206 41.8596 13.0368 41.7818 14.242 41.6818C15.6865 41.5595 17.1338 41.4734 18.5757 41.315C20.6998 41.0816 22.8048 40.7593 24.8244 40.0008C26.844 39.2423 28.6931 38.1782 30.1349 36.5028C31.1919 35.3098 31.9313 33.8652 32.2838 32.3046C32.5024 31.4195 32.5408 30.4989 32.3966 29.5984C31.9179 27.02 30.5724 25.1196 28.0657 24.1833C27.719 24.0527 27.7025 24.011 27.9832 23.7637C28.5968 23.2247 29.2324 22.7107 29.835 22.1606C30.8613 21.2486 31.7984 20.2391 32.6333 19.146C33.6624 17.7568 34.5318 16.2953 34.7767 14.5338V14.256C34.8895 14.256 34.9005 14.1615 34.9116 14.067C35.0203 13.2801 35.0434 12.4835 34.9803 11.6915ZM22.3975 34.8052C21.3065 35.5391 20.0955 36.0724 18.8205 36.3805C16.069 37.1418 13.2734 37.717 10.5467 38.5616C9.97821 38.7709 9.38702 38.9108 8.78567 38.9784C8.39495 39.0006 8.37294 38.9784 8.49676 38.6088C8.91377 37.2933 9.40715 36.0038 9.97434 34.7468C10.4751 33.7133 10.9209 32.6519 11.5152 31.6656C12.5911 29.8763 13.9558 28.4009 15.8846 27.5285C16.6598 27.1876 17.4963 27.0117 18.3418 27.0117C19.6239 26.949 20.9064 27.13 22.1224 27.5452C23.2918 27.9869 24.186 28.7065 24.5025 29.9929C24.5809 30.3212 24.6161 30.6584 24.607 30.996C24.5477 31.7582 24.3181 32.497 23.9354 33.1567C23.5527 33.8165 23.0269 34.3801 22.3975 34.8052ZM30.721 14.77C29.8474 16.2393 28.6485 17.4842 27.2182 18.4069C25.8436 19.3134 24.316 19.9575 22.7112 20.3074C22.6067 20.3324 22.4911 20.324 22.4361 20.4435H22.2407C21.9384 20.4449 21.6367 20.47 21.3382 20.5185C20.7447 20.5894 20.1458 20.6033 19.5497 20.5602C19.5487 20.5344 19.5571 20.5091 19.5733 20.4891C19.5896 20.4692 19.6125 20.4559 19.6378 20.4518C21.2407 19.8452 22.5967 18.7146 23.4899 17.24C24.1658 16.2138 24.524 15.0077 24.519 13.7753C24.519 13.6614 24.519 13.5503 24.519 13.4363C24.6016 12.4205 24.3934 11.4021 23.9191 10.5023C23.7375 10.18 23.5697 9.84662 23.4184 9.50765C22.8681 8.30181 23.2588 7.40161 24.519 7.00707C25.342 6.76191 26.209 6.70684 27.0559 6.84592C27.9123 6.93302 28.7282 7.25702 29.414 7.78225C30.087 8.29761 30.6277 8.96857 30.9907 9.73876C31.3536 10.5089 31.5281 11.3558 31.4996 12.2083C31.4711 13.117 31.2022 14.0015 30.721 14.77Z" fill="white"/>
<path id="Vector_3" d="M65.7343 29.0844C65.7776 28.2201 65.7463 27.3537 65.6408 26.4949C65.5018 24.9624 65.2869 23.438 64.9969 21.9272C64.4092 18.9281 63.4966 16.0033 62.2756 13.2057C61.5899 11.6295 60.7984 10.1025 59.9066 8.63522C59.3177 7.66555 58.7537 6.67088 57.9117 5.88736C57.584 5.58402 57.1941 5.3573 56.7698 5.22332C56.0956 5.0483 55.3886 5.0483 54.7144 5.22332C53.567 5.44559 52.4279 5.73455 51.2475 5.70954H50.8457C50.3256 5.68915 49.8072 5.63533 49.2939 5.54839C48.4381 5.40967 47.6009 5.1729 46.7982 4.84267C46.7157 4.80655 46.6111 4.77321 46.5506 4.84267C46.4901 4.91213 46.5891 4.99271 46.6359 5.05383C46.878 5.39002 47.1477 5.70676 47.3678 6.05684C48.4258 7.77411 49.0425 9.73095 49.1618 11.7498C49.1494 12.0757 49.1799 12.4018 49.2526 12.7195C49.2526 12.7834 49.2526 12.8501 49.2526 12.914C49.2526 13.5502 49.2278 14.1837 49.2141 14.82C49.2141 14.9283 49.2003 15.0395 49.1948 15.1478C49.1726 15.1718 49.1556 15.2004 49.1452 15.2315C49.1348 15.2627 49.131 15.2957 49.1343 15.3284C49.0517 16.5509 48.9032 17.7623 48.7326 18.9737C48.4788 20.7883 48.1279 22.5876 47.6815 24.3639C47.3631 25.7712 46.9429 27.153 46.424 28.4981C46.0575 29.269 45.7805 30.0802 45.5986 30.9154C45.541 31.1442 45.5359 31.3832 45.5836 31.6143C45.6313 31.8454 45.7305 32.0625 45.8737 32.249C46.5397 33.0728 47.3104 33.8042 48.1657 34.4245C48.4659 34.6529 48.8112 34.8132 49.1782 34.8947C49.5453 34.9762 49.9254 34.977 50.2927 34.8969C51.3933 34.6746 52.172 33.9994 52.7691 33.0659C53.2781 32.2657 53.3524 31.346 53.479 30.4514C53.5574 29.8418 53.5574 29.2245 53.479 28.6148C53.3992 27.9397 53.479 27.8313 54.1036 27.6813C55.5711 27.3108 57.0459 26.9534 58.528 26.6088C59.0096 26.4921 59.1086 26.5838 59.1251 27.0978C59.1251 27.3451 59.0481 27.6007 59.1664 27.8424C59.1526 28.4982 59.1361 29.1539 59.1224 29.8123C59.0993 29.8358 59.0819 29.8643 59.0714 29.8956C59.0609 29.9269 59.0576 29.9602 59.0618 29.9929C59.0213 30.7378 58.9405 31.4798 58.8197 32.2157C58.5863 33.7715 58.2086 35.3017 57.6916 36.7862C57.0844 38.533 56.3036 40.2133 55.361 41.8012C55.2042 42.0791 55.262 42.1597 55.5701 42.1958C55.8783 42.2319 56.1535 42.2402 56.4424 42.293C57.7448 42.525 59.0774 42.525 60.3798 42.293C62.4517 41.929 63.9568 40.7815 64.6915 38.7366C65.0015 37.8359 65.2164 36.9046 65.3326 35.9582C65.5162 34.9147 65.622 33.8587 65.649 32.7991C65.718 32.527 65.7485 32.2464 65.7398 31.9656C65.7563 31.1877 65.7701 30.4125 65.7921 29.6345C65.806 29.4491 65.7865 29.2627 65.7343 29.0844ZM58.7152 21.8299C57.1495 22.4687 55.5042 22.8866 53.8257 23.0719C53.567 23.1025 53.4294 23.0163 53.468 22.7302C53.5427 22.2114 53.5749 21.6872 53.5643 21.1631C53.7893 19.1197 53.7189 17.0541 53.3551 15.0311C53.134 13.9644 53.0151 12.8785 53.0002 11.7887C53.08 11.722 53.0552 11.6276 53.069 11.5442C53.1873 10.7607 53.6468 10.2745 54.3897 10.2495C54.879 10.2481 55.3578 10.3931 55.7655 10.6662C56.7977 11.3255 57.6335 12.255 58.1841 13.3558C59.1114 15.1228 59.3425 17.0483 59.425 19.0071C59.425 19.221 59.359 19.4433 59.4691 19.6489C59.4691 19.8934 59.4691 20.1351 59.4691 20.3768C59.4691 20.4991 59.4691 20.6185 59.4498 20.738C59.4168 21.641 59.4333 21.5382 58.7152 21.8299Z" fill="white"/>
<path id="Vector_4" d="M85.848 40.3037C84.8025 42.9904 82.8489 44.6074 80.0423 45.1715C79.6072 45.2689 79.1596 45.2961 78.7161 45.252H78.3143C77.2385 45.2882 76.2149 44.9964 75.2023 44.6964C73.8266 44.2768 72.4508 43.81 71.0613 43.3599C70.7858 43.3116 70.5171 43.2305 70.2606 43.1182C69.6415 43.0404 69.0196 42.9571 68.3978 42.8876C68.2589 42.884 68.12 42.8914 67.9823 42.9098C67.582 42.9218 67.183 42.9617 66.7881 43.0293C66.4855 43.071 66.4387 43.0293 66.5432 42.7237C66.7881 42.0207 67.0495 41.3345 67.2862 40.6204C67.8983 38.7976 68.3693 36.9295 68.6949 35.033C68.9227 33.7657 69.0807 32.4866 69.1682 31.2016C69.1659 31.1687 69.1703 31.1357 69.1811 31.1046C69.192 31.0735 69.2092 31.045 69.2315 31.021C69.2563 29.9096 69.325 28.7982 69.2975 27.6702C69.27 26.5421 69.204 25.3669 69.0857 24.2166C68.9949 23.3192 68.7637 22.4356 68.794 21.5271C68.7032 21.5104 68.6839 21.4465 68.6702 21.3604C68.2391 18.9695 67.5879 16.6245 66.7248 14.356C65.9614 12.3473 65.0308 10.4075 63.943 8.55743C63.258 7.36277 62.4989 6.21299 61.6703 5.11496C61.6177 5.04532 61.5716 4.97091 61.5327 4.89269C61.5052 4.8399 61.4446 4.776 61.5024 4.71487C61.5602 4.65375 61.6235 4.71487 61.684 4.73154C62.1854 4.96873 62.7089 5.15488 63.2469 5.28723C64.0052 5.426 64.7802 5.44569 65.5444 5.34557C67.4705 5.11496 69.2563 4.33701 71.0475 3.66463C72.3082 3.15923 73.6262 2.81391 74.9712 2.63661C75.1994 2.62412 75.4281 2.62412 75.6563 2.63661L76.2479 2.6505C77.7887 2.67394 79.2592 3.30519 80.345 4.40924C81.9409 5.94571 82.4582 7.87116 82.2986 10.0244C82.2638 10.6853 82.0143 11.3161 81.5887 11.8193C81.382 12.062 81.0978 12.2242 80.7852 12.2777C80.603 12.3056 80.4192 12.3224 80.2349 12.3277H79.8332C79.8029 12.1833 79.7341 12.1833 79.6406 12.275L79.1838 12.2527C78.5121 12.2142 77.8383 12.244 77.1724 12.3416C77.0546 12.3581 76.9391 12.3889 76.8285 12.4333C76.757 12.4639 76.6772 12.4917 76.6166 12.4333C76.5561 12.375 76.6166 12.2916 76.6414 12.2222C76.8786 11.7006 76.9376 11.1142 76.8092 10.5551C76.4075 8.88806 74.6961 8.22124 73.2735 8.96863C72.9171 9.16383 72.6121 9.44217 72.3838 9.78046C72.1555 10.1188 72.0106 10.5072 71.961 10.9135C71.7519 12.0249 71.9473 13.1363 72.1206 14.2337C72.1389 14.3635 72.1463 14.4945 72.1426 14.6255C72.2686 15.2207 72.3605 15.8228 72.4178 16.4287C72.5581 17.5873 72.6929 18.7459 72.7892 19.9073C72.8525 20.788 72.9021 21.6716 72.9543 22.5523C73.0754 24.6111 73.0479 26.6672 72.9956 28.7232C72.9956 29.001 72.9763 29.2789 72.9653 29.5567C72.9516 30.2319 72.9406 30.907 72.9268 31.5822C72.9268 31.66 72.9268 31.7378 72.8635 31.7934C72.8635 32.1212 72.8498 32.4491 72.8443 32.7769C72.9736 33.1242 72.8443 33.4882 72.9241 33.8466C72.9724 34.215 72.9945 34.5864 72.9901 34.958C73.1965 35.5415 73.2873 36.161 73.5404 36.7334C74.154 38.181 75.073 39.3062 76.6386 39.7396C77.1626 39.9132 77.7219 39.9474 78.2628 39.8388C78.8036 39.7303 79.3075 39.4827 79.7259 39.1201C80.1432 38.742 80.4174 38.2294 80.5018 37.6697C80.5991 37.2588 80.5905 36.8295 80.4768 36.4229C80.3631 36.0163 80.1482 35.6459 79.8524 35.347C79.7864 35.2803 79.6791 35.2108 79.7506 35.1025C79.8222 34.9941 79.9075 35.0802 79.99 35.1025C80.9958 35.2109 82.013 35.0913 82.9672 34.7524C83.6028 34.5285 84.2061 34.2202 84.7612 33.8355C85.0363 33.6355 85.1299 33.6688 85.3115 33.9744C85.7819 34.7786 86.0817 35.6727 86.192 36.6C86.3871 37.8442 86.2688 39.1179 85.848 40.3037Z" fill="white"/>
<path id="Vector_5" d="M103.992 0.827854L104.008 0.5C103.835 0.537599 103.681 0.636079 103.574 0.777842C102.695 1.67214 101.749 2.49697 100.745 3.24508C99.3444 4.25365 97.8338 4.9677 96.0674 5.02049L95.5418 5.05383C95.1098 4.96492 94.6778 4.88713 94.2486 4.77599C93.6515 4.62873 93.148 4.26754 92.5977 4.01748C92.3481 3.88064 92.0646 3.81964 91.7814 3.84182C91.4982 3.86401 91.2275 3.96843 91.0018 4.14251C90.7607 4.33041 90.5418 4.54577 90.3496 4.78433C89.5234 5.85608 88.873 7.05498 88.4236 8.33515C87.7544 10.227 87.2741 12.1816 86.99 14.1698C86.8057 15.2979 86.5498 16.4092 85.7491 17.29C85.5004 17.579 85.1976 17.8154 84.8581 17.9856C84.5185 18.1559 84.149 18.2566 83.7707 18.2819C83.2507 18.318 83.1461 18.1735 83.2974 17.6623C83.6221 16.551 83.807 15.4028 83.8478 14.2448C83.8643 13.8364 83.8092 13.4363 83.7955 13.0307C83.7662 12.6509 83.7138 12.2732 83.6386 11.8999C83.6386 11.8248 83.6111 11.7332 83.5093 11.7443C83.4075 11.7554 83.4213 11.8332 83.3993 11.8915C83.3875 11.9335 83.3783 11.9762 83.3717 12.0193C83.0278 13.5086 81.3246 14.6338 79.9075 14.3365C79.5719 14.2671 79.2279 14.2254 78.8867 14.1726C78.8666 14.1699 78.8463 14.1699 78.8262 14.1726C78.7244 14.0698 78.5786 14.0976 78.4575 14.0698C78.2321 14.0048 77.9957 13.9889 77.7638 14.0233C77.5319 14.0577 77.3099 14.1415 77.1126 14.2693C76.9153 14.397 76.7472 14.5657 76.6195 14.7641C76.4917 14.9626 76.4073 15.1862 76.3718 15.4201C76.2645 16.0598 76.3399 16.7171 76.5892 17.315C77.1735 18.8574 77.5439 20.474 77.6898 22.1189C77.6613 22.4109 77.6912 22.7057 77.7779 22.9858C77.7779 23.4914 77.7558 23.9943 77.7421 24.5C77.6678 24.5667 77.6843 24.6584 77.676 24.7445C77.6053 25.7016 77.444 26.6496 77.1945 27.5757C76.9744 28.4092 76.6442 29.1872 76.4736 30.0207C76.3442 30.5009 76.3924 31.0122 76.6091 31.4591C76.8258 31.906 77.1963 32.2579 77.6513 32.4491C78.3826 32.761 79.1759 32.8961 79.9681 32.8436H80.3698C80.4579 32.8436 80.5432 32.8436 80.645 32.8603C81.1256 32.9062 81.6065 32.7767 82.0008 32.4953C82.395 32.214 82.6764 31.7994 82.7939 31.3266C82.9425 30.8487 83.0361 30.3514 83.1929 29.8735C83.2612 29.6134 83.3878 29.3727 83.5629 29.1699C83.738 28.967 83.9569 28.8076 84.2027 28.7038C84.9731 28.3926 86.016 28.8705 86.5553 29.5817C87.5499 30.9572 88.279 32.5097 88.7042 34.1578C89.1509 35.7949 89.3367 37.4934 89.2545 39.1895C89.2298 39.8758 89.1555 40.5787 89.3398 41.2511C89.5655 42.0846 89.9589 42.7987 90.8174 43.121C91.5576 43.3988 92.3253 43.2766 93.0737 43.2043C93.6081 43.1385 94.1503 43.1948 94.6604 43.3688C95.1704 43.5429 95.6353 43.8304 96.0206 44.2101C96.7506 44.9381 97.2815 45.8446 97.5614 46.8413C97.7238 47.3414 97.8531 47.8499 97.9962 48.3555C98.0154 48.4278 98.0154 48.5278 98.12 48.5083C98.2246 48.4889 98.1723 48.4028 98.1778 48.3416C98.1819 48.2973 98.1819 48.2526 98.1778 48.2083C98.0732 47.4637 97.9604 46.7163 97.8669 45.9689C97.6963 44.6047 97.4789 43.246 97.2285 41.8929C96.9431 40.2775 96.559 38.6815 96.0784 37.114C95.4862 35.1917 94.6706 33.3469 93.6487 31.6183C92.4973 29.6159 90.9932 27.8429 89.2105 26.3865C87.9137 25.3312 86.4417 24.5166 84.8631 23.9804C84.2522 23.8222 83.6775 23.5457 83.1709 23.1664C82.6866 22.7552 82.4665 21.9883 82.7526 21.5188C82.887 21.3166 83.063 21.1461 83.2686 21.019C83.4742 20.892 83.7047 20.8113 83.9441 20.7825C84.2116 20.772 84.4777 20.7376 84.7393 20.6797H85.0639C85.7966 20.7524 86.5306 20.5551 87.1303 20.124C87.793 19.6218 88.3347 18.975 88.7152 18.2319C89.3343 17.14 89.6122 15.9091 90.069 14.7505C90.5835 13.4474 91.2742 12.2861 92.5289 11.5859C93.4024 11.117 94.3159 10.7283 95.2584 10.4245C97.3347 9.73507 99.2074 8.53263 100.706 6.92649C101.677 5.88995 102.478 4.70343 103.078 3.41179C103.386 2.73941 103.719 2.06703 103.78 1.30574C103.78 1.17238 103.862 1.14182 103.978 1.15849C103.978 1.06958 103.978 0.983445 103.978 0.880644C103.942 0.872308 103.953 0.850081 103.992 0.827854ZM97.8173 47.1358H97.8393C97.8402 47.145 97.8402 47.1543 97.8393 47.1636H97.8173C97.8165 47.1543 97.8165 47.145 97.8173 47.1358Z" fill="white"/>
<path id="Vector_6" d="M53.9301 36.5667C53.6963 38.2171 53.4459 39.873 52.769 41.4095C52.0701 42.9987 51.0493 44.3268 49.4671 45.1242C48.7704 45.4936 47.9844 45.6563 47.1999 45.5938H46.999C45.9534 45.6216 44.9986 45.2743 44.0631 44.8603C42.7561 44.2824 41.5867 43.4516 40.3651 42.7376C39.2149 42.068 38.0372 41.4595 36.7138 41.2344C36.2845 41.1594 35.8415 41.0344 35.3958 41.165C35.3655 41.165 35.3215 41.1316 35.2857 41.1122H34.972C34.9666 41.1445 34.9507 41.1741 34.9268 41.1962C34.9029 41.2183 34.8723 41.2318 34.84 41.2344C33.4009 41.4706 32.1737 42.1902 30.9548 42.9376C29.8542 43.6128 28.7756 44.3435 27.5786 44.8547C26.987 45.0993 26.3693 45.2736 25.7379 45.3743C25.694 45.3798 25.6496 45.3798 25.6058 45.3743C25.5177 45.3604 25.3884 45.416 25.3581 45.2826C25.3279 45.1492 25.4297 45.1353 25.4957 45.0798C25.8589 44.7658 26.2331 44.4657 26.5963 44.1407C27.5944 43.2268 28.5441 42.2604 29.4414 41.2455C30.9044 39.5703 32.2174 37.7675 33.3651 35.8582C34.31 34.2833 35.1431 32.6427 35.858 30.9487C36.8572 28.5701 37.6132 26.0946 38.1143 23.5609C38.3674 22.2634 38.538 20.9547 38.6646 19.6405C38.7086 19.1988 38.6481 18.7431 38.7994 18.3125C38.8141 17.6345 38.8297 16.9557 38.8462 16.2759C38.7471 16.162 38.7967 16.023 38.7967 15.898C38.8205 13.9849 38.5929 12.0771 38.1198 10.2245C37.7136 8.80542 37.1602 7.43362 36.4689 6.13186C36.3313 5.86791 36.2102 5.5984 36.0781 5.33723C35.9461 5.07606 35.9818 5.01771 36.268 5.00104C36.8718 4.99033 37.4749 5.05094 38.0648 5.18164C38.7361 5.29555 39.4103 5.38724 40.0816 5.49004C40.132 5.50464 40.1809 5.52418 40.2275 5.54839H40.288C41.1232 5.64107 41.9028 6.01608 42.5002 6.61252C43.7797 7.7739 44.3851 9.27147 44.6024 10.9719C44.723 12.0506 44.7322 13.1391 44.6299 14.2198C44.4979 15.8619 44.2915 17.4956 44.0329 19.1265C43.4924 22.4606 42.6863 25.7451 41.6225 28.9482C40.9 31.107 40.066 33.2262 39.1241 35.2969C39.1047 35.3469 39.0882 35.3979 39.0746 35.4498L39.0498 35.4831L39.0828 35.4581C39.2287 35.4942 39.325 35.3803 39.4433 35.3331C40.6017 34.8496 41.7133 35.0302 42.7919 35.5776C43.6449 36.0082 44.3465 36.65 45.0812 37.2446C45.7823 37.8464 46.5484 38.3665 47.365 38.795C48.7105 39.459 49.9597 39.234 51.1786 38.5171C52.0646 37.9604 52.8585 37.2666 53.5312 36.4611L53.5532 36.4361C53.6798 36.3416 53.7706 36.1082 53.9274 36.1583C54.0842 36.2083 53.9577 36.4333 53.9301 36.5667Z" fill="white"/>
<path id="Vector_7" d="M79.8249 12.3194C79.7913 12.3313 79.7549 12.3327 79.7205 12.3232C79.6861 12.3138 79.6554 12.2941 79.6323 12.2666C79.7259 12.1694 79.7947 12.1694 79.8249 12.3194Z" fill="white"/>
<path id="Vector_8" d="M97.8393 47.1469C97.8401 47.1562 97.8401 47.1655 97.8393 47.1747H97.8173C97.8164 47.1655 97.8164 47.1562 97.8173 47.1469H97.8393Z" fill="white"/>
<path id="Vector_9" d="M39.0718 35.4637L39.0388 35.4887L39.0636 35.4553L39.0718 35.4637Z" fill="white"/>
</g>
<defs>
<clipPath id="clip0_251_203">
<rect width="104" height="48" fill="white" transform="translate(0 0.5)"/>
</clipPath>
</defs>
</svg>
