<svg width="50" height="50" viewBox="0 0 50 50" fill="none" xmlns="http://www.w3.org/2000/svg">
<g id="logos:adobe-illustrator" clip-path="url(#clip0_327_71)">
<path id="Vector" d="M41.6992 0H8.30078C3.71639 0 0 3.88947 0 8.68737V42.333C0 47.1309 3.71639 51.0204 8.30078 51.0204H41.6992C46.2836 51.0204 50 47.1309 50 42.333V8.68737C50 3.88947 46.2836 0 41.6992 0Z" fill="#330000"/>
<path id="Vector_2" d="M24.2293 29.958H16.4813L14.9047 34.9727C14.8832 35.0641 14.8313 35.1451 14.7578 35.2015C14.6843 35.2579 14.5939 35.2864 14.5022 35.2819H10.5777C10.3541 35.2819 10.2758 35.1558 10.343 34.9039L17.0514 15.1203C17.1184 14.9142 17.1856 14.6797 17.2525 14.4163C17.3404 13.9579 17.3854 13.4923 17.3867 13.0253C17.3822 12.9926 17.3851 12.9593 17.3953 12.928C17.4054 12.8967 17.4226 12.8682 17.4454 12.8449C17.4682 12.8215 17.4959 12.8039 17.5265 12.7935C17.5571 12.783 17.5896 12.78 17.6215 12.7847H22.9547C23.1109 12.7847 23.2004 12.842 23.2231 12.9566L30.8369 34.9382C30.9041 35.1674 30.8369 35.282 30.6357 35.2819H26.2752C26.2003 35.2904 26.125 35.2706 26.0633 35.2264C26.0015 35.1822 25.9577 35.1164 25.9398 35.0415L24.2293 29.958ZM17.6887 25.6304H22.9883L22.9127 25.3751L22.7914 24.9706L22.7049 24.6867L22.5668 24.2395L22.2732 23.298L22.015 22.4635L21.3445 20.2895C21.1776 19.749 21.0175 19.2064 20.8641 18.6618L20.7414 18.2199L20.5981 17.6973L20.3793 16.8872L20.3383 16.7346H20.3049C20.1371 17.5591 19.9327 18.3753 19.6924 19.1807L19.1947 20.8198L18.9209 21.7255L18.6445 22.6423C18.5945 22.8078 18.5449 22.9717 18.4951 23.1335L18.3467 23.6131L18.199 24.0815L18.0522 24.5383L17.9061 24.9837C17.8576 25.1302 17.8092 25.2748 17.7609 25.4177L17.6887 25.6304ZM35.3647 16.4255C35.0226 16.4395 34.6814 16.3795 34.3635 16.2493C34.0456 16.1191 33.7582 15.9216 33.5199 15.6699C33.2823 15.4071 33.0978 15.0989 32.9769 14.763C32.8559 14.427 32.8011 14.0698 32.8154 13.712C32.8033 13.3579 32.8642 13.005 32.9942 12.6766C33.1243 12.3482 33.3205 12.0515 33.5701 11.8061C34.0516 11.3328 34.6928 11.0679 35.3602 11.0667L35.4316 11.0675C36.2367 11.0675 36.8686 11.3135 37.327 11.8059C37.5583 12.0617 37.7381 12.3617 37.8561 12.6888C37.9741 13.0159 38.0279 13.3636 38.0145 13.712C38.0285 14.0712 37.9719 14.4297 37.8481 14.766C37.7242 15.1024 37.5356 15.4098 37.2934 15.6701C37.0488 15.9168 36.7586 16.1111 36.4397 16.2412C36.1207 16.3714 35.7796 16.4349 35.4363 16.4281L35.3647 16.4255ZM33.0502 34.9382V18.5206C33.0502 18.3147 33.1393 18.2115 33.3186 18.2115H37.4443C37.6231 18.2115 37.7125 18.3144 37.7127 18.5206V34.9382C37.7127 35.1674 37.6232 35.282 37.4443 35.2819H33.3522C33.1615 35.2819 33.0611 35.1791 33.0512 34.9735L33.0502 34.9382Z" fill="#FF9A00"/>
</g>
<defs>
<clipPath id="clip0_327_71">
<rect width="50" height="50" fill="white"/>
</clipPath>
</defs>
</svg>
