<svg width="50" height="49" viewBox="0 0 50 49" fill="none" xmlns="http://www.w3.org/2000/svg">
<g id="logos:adobe-indesign" clip-path="url(#clip0_327_29)">
<path id="Vector" d="M41.6992 0H8.30078C3.71639 0 0 3.71639 0 8.30078V40.4492C0 45.0336 3.71639 48.75 8.30078 48.75H41.6992C46.2836 48.75 50 45.0336 50 40.4492V8.30078C50 3.71639 46.2836 0 41.6992 0Z" fill="#49021F"/>
<path id="Vector_2" d="M18.158 12.7533V34.1193C18.158 34.3431 18.0574 34.4549 17.8561 34.4549H13.7975C13.6184 34.4549 13.5289 34.3429 13.5293 34.1193V12.7533C13.5293 12.5746 13.6299 12.4851 13.8311 12.4849H17.8897C17.9238 12.4801 17.9586 12.4828 17.9915 12.4927C18.0245 12.5027 18.055 12.5197 18.0807 12.5426C18.1065 12.5656 18.1269 12.5938 18.1406 12.6254C18.1543 12.6571 18.161 12.6913 18.1602 12.7258L18.158 12.7533ZM30.3818 34.7881L30.1658 34.7902C28.622 34.8137 27.0924 34.4929 25.6881 33.8511C24.3799 33.2457 23.2863 32.2573 22.552 31.0168C21.81 29.7845 21.4301 28.2486 21.4121 26.4093L21.4115 26.2707C21.399 24.7312 21.7924 23.2157 22.5522 21.8767C23.3137 20.5495 24.4244 19.4563 25.7637 18.716L25.8727 18.6566C27.3258 17.8517 29.0813 17.4492 31.1387 17.4492L31.182 17.4494L31.2783 17.4515L31.3873 17.4558L31.509 17.4621L31.6432 17.4705L31.7898 17.4812L32.1213 17.5084L32.2119 17.5162V10.9088C32.2119 10.7525 32.2791 10.6738 32.4131 10.6738H36.6395C36.6668 10.6699 36.6947 10.6724 36.7208 10.6811C36.747 10.6898 36.7708 10.7045 36.7904 10.7241C36.8099 10.7436 36.8246 10.7674 36.8333 10.7936C36.842 10.8198 36.8445 10.8476 36.8406 10.875V30.6982C36.842 31.1124 36.8588 31.5263 36.891 31.9392L36.9227 32.3716L36.9506 32.7742L36.9748 33.1467C36.979 33.2163 36.962 33.2856 36.9261 33.3455C36.8902 33.4054 36.8371 33.453 36.7736 33.4822C35.6833 33.9369 34.5477 34.2741 33.3859 34.4883C32.3947 34.6713 31.3899 34.7715 30.382 34.7881M32.2121 30.631V21.4742C32.0308 21.4251 31.8457 21.3915 31.6588 21.3736C31.4303 21.3506 31.2008 21.3394 30.9711 21.34C30.157 21.332 29.3527 21.5158 28.6232 21.8767C27.9126 22.23 27.3058 22.7616 26.8623 23.4197C26.4037 24.0904 26.1744 24.9738 26.1746 26.0695C26.1583 26.8006 26.2777 27.5284 26.5268 28.216C26.7295 28.7701 27.0499 29.2737 27.466 29.692C27.8644 30.0768 28.3466 30.3638 28.8748 30.5304C29.4327 30.7111 30.0158 30.8017 30.6021 30.799C30.915 30.799 31.2057 30.7877 31.4742 30.7652C31.6884 30.7491 31.9007 30.7138 32.1086 30.6597L32.2121 30.631Z" fill="#FF3366"/>
</g>
<defs>
<clipPath id="clip0_327_29">
<rect width="50" height="48.8281" fill="white"/>
</clipPath>
</defs>
</svg>
