<svg width="50" height="49" viewBox="0 0 50 49" fill="none" xmlns="http://www.w3.org/2000/svg">
<g id="logos:adobe-photoshop" clip-path="url(#clip0_327_88)">
<path id="Vector" d="M41.6992 0H8.30078C3.71639 0 0 3.71639 0 8.30078V40.4492C0 45.0336 3.71639 48.75 8.30078 48.75H41.6992C46.2836 48.75 50 45.0336 50 40.4492V8.30078C50 3.71639 46.2836 0 41.6992 0Z" fill="#001E36"/>
<path id="Vector_2" d="M11.2585 34.1865V12.7533C11.2585 12.5971 11.3257 12.5186 11.4599 12.5186L11.6722 12.518L12.0351 12.5141L12.5394 12.5041L14.2289 12.4684L16.0404 12.4348C16.6775 12.4238 17.3091 12.418 17.9353 12.418C19.6345 12.418 21.0656 12.6305 22.2287 13.0553C23.2778 13.4102 24.2346 13.9945 25.0294 14.7658C25.7032 15.4344 26.2239 16.2413 26.5556 17.1307C26.8694 17.9961 27.0284 18.9101 27.0253 19.8307C27.0253 21.6199 26.6115 23.0957 25.7841 24.2582C24.9749 25.3923 23.8462 26.2597 22.5419 26.7496L22.43 26.7906C21.0681 27.2986 19.5599 27.4822 17.9058 27.4938L17.6488 27.4945L17.2673 27.4926L17.075 27.4898L16.8605 27.4848L16.7312 27.4797L16.6527 27.4756L16.4595 27.4686L16.2234 27.4637L15.8679 27.4611L15.7888 27.4609V34.1529C15.7947 34.194 15.7909 34.2358 15.7778 34.2751C15.7648 34.3144 15.7427 34.3501 15.7134 34.3794C15.6841 34.4087 15.6483 34.4308 15.609 34.4439C15.5697 34.457 15.5279 34.4608 15.4869 34.4549H11.4935C11.3367 34.4549 11.2585 34.3658 11.2585 34.1865ZM15.789 16.5436V23.5342C16.0567 23.5558 16.3251 23.567 16.5937 23.5678H17.7007C18.464 23.5652 19.2228 23.4516 19.9533 23.2305L20.099 23.185C20.7635 22.9876 21.3574 22.6033 21.8097 22.0779C22.23 21.5822 22.4478 20.8992 22.4628 20.0287L22.4638 19.9312C22.4814 19.2824 22.3126 18.6422 21.9773 18.0865C21.6248 17.5491 21.1154 17.1333 20.5183 16.8957C19.7386 16.5927 18.9058 16.4501 18.0697 16.4766L17.6443 16.4777L17.3759 16.4801L17.1199 16.4834L16.7585 16.4904L16.4949 16.4979L16.358 16.5029L16.175 16.5115L16.0191 16.5211L15.9302 16.5281L15.8535 16.5355L15.8197 16.5395L15.789 16.5436ZM39.9941 22.2631C39.409 21.9624 38.7883 21.7365 38.1468 21.5908L37.9984 21.5588C37.2926 21.3968 36.5721 21.3076 35.8482 21.2926L35.6673 21.2904C35.2429 21.2789 34.8191 21.3298 34.4095 21.4414C34.1487 21.4994 33.9169 21.6479 33.7552 21.8605C33.6459 22.0307 33.5878 22.2286 33.5876 22.4309C33.5938 22.627 33.6645 22.8156 33.7888 22.9674C33.9668 23.1756 34.1808 23.35 34.4207 23.4824L34.4933 23.5209C34.9715 23.7784 35.4643 24.0079 35.9691 24.2084C37.0948 24.5852 38.1704 25.0977 39.1722 25.7346C39.8548 26.1653 40.4196 26.759 40.816 27.4621C41.1492 28.1278 41.316 28.8643 41.3023 29.6086C41.3224 30.5916 41.0415 31.5572 40.4972 32.376C39.9146 33.207 39.1054 33.8531 38.166 34.2373C37.1822 34.6697 35.974 34.893 34.5416 34.9076L34.3927 34.9084C33.5047 34.9174 32.618 34.8397 31.7451 34.6764L31.5583 34.64C30.8234 34.5053 30.108 34.2799 29.4285 33.9691C29.3602 33.9339 29.3025 33.8811 29.2612 33.8163C29.22 33.7514 29.1967 33.6768 29.1937 33.6V29.9441C29.1897 29.9087 29.1954 29.8727 29.2102 29.8402C29.225 29.8077 29.2483 29.7799 29.2777 29.7596C29.3065 29.7433 29.3396 29.7362 29.3725 29.7392C29.4054 29.7422 29.4367 29.7552 29.4621 29.7764C30.2645 30.2496 31.1359 30.5947 32.0447 30.7994C32.8458 31.0002 33.6675 31.1072 34.4933 31.1182C35.2757 31.1182 35.8515 31.0174 36.2207 30.8162C36.3873 30.7399 36.5283 30.6169 36.6266 30.4622C36.7248 30.3074 36.7761 30.1274 36.7742 29.9441C36.7742 29.6539 36.6064 29.3742 36.271 29.1057C36.1304 28.9932 35.9287 28.8707 35.6662 28.7385L35.5406 28.6768L35.4066 28.6137L35.3363 28.5816L35.189 28.5164C35.1635 28.5053 35.1379 28.4942 35.1123 28.4832L34.9521 28.416L34.8687 28.3818L34.6957 28.3125L34.6058 28.2773L34.4197 28.2057L34.225 28.1328C33.1717 27.7662 32.1731 27.2585 31.2564 26.6234C30.6008 26.1675 30.0609 25.5644 29.68 24.8625C29.3502 24.2016 29.1834 23.4712 29.1937 22.7326C29.1918 21.8451 29.4356 20.9745 29.898 20.217C30.4253 19.383 31.1824 18.7189 32.0783 18.3053C33.0621 17.8137 34.2917 17.5676 35.7677 17.5672C36.6322 17.5602 37.4958 17.622 38.3505 17.7518C38.9694 17.8302 39.5745 17.9939 40.1486 18.2381C40.241 18.2646 40.3154 18.3328 40.3498 18.4227C40.3726 18.5045 40.3837 18.5891 40.3834 18.6742V22.0619C40.3882 22.142 40.3498 22.2188 40.2828 22.2631C40.2379 22.2854 40.1885 22.297 40.1384 22.297C40.0883 22.297 40.0389 22.2854 39.9941 22.2631Z" fill="#31A8FF"/>
</g>
<defs>
<clipPath id="clip0_327_88">
<rect width="50" height="48.8281" fill="white"/>
</clipPath>
</defs>
</svg>
